<svg version="1.1" xmlns="http://www.w3.org/2000/svg" xmlns:xlink="http://www.w3.org/1999/xlink" width="512" height="512" viewBox="0,0,256,256"><g fill="#ffffff" fill-rule="nonzero" stroke="none" stroke-width="1" stroke-linecap="butt" stroke-linejoin="miter" stroke-miterlimit="10" stroke-dasharray="" stroke-dashoffset="0" font-family="none" font-weight="none" font-size="none" text-anchor="none" style="mix-blend-mode: normal"><g transform="translate(0,-0.15867) scale(10.66667,10.66667)"><path d="M23.045,8.034l-2.045,-1.607v-4.427h-1v3.641l-6.455,-5.075c-0.908,-0.715 -2.182,-0.715 -3.09,0l-9.5,7.468c-0.607,0.477 -0.955,1.193 -0.955,1.966v14h24v-14c0,-0.772 -0.348,-1.488 -0.955,-1.966zM23,23h-22v-13c0,-0.464 0.209,-0.894 0.572,-1.179l9.5,-7.467c0.547,-0.43 1.309,-0.43 1.855,0l9.5,7.468c0.363,0.285 0.572,0.715 0.572,1.179v13z"></path></g></g></svg>