<svg version="1.1" xmlns="http://www.w3.org/2000/svg" xmlns:xlink="http://www.w3.org/1999/xlink" width="24px" height="24px" viewBox="0,0,256,256"><g fill="#ffffff" fill-rule="nonzero" stroke="none" stroke-width="1" stroke-linecap="butt" stroke-linejoin="miter" stroke-miterlimit="10" stroke-dasharray="" stroke-dashoffset="0" font-family="none" font-weight="none" font-size="none" text-anchor="none" style="mix-blend-mode: normal"><g transform="translate(0.77867,0.784) scale(10.66667,10.66667)"><path d="M23.854,23.146l-6.449,-6.449c1.607,-1.775 2.596,-4.12 2.596,-6.697c-0.001,-5.514 -4.487,-10 -10.001,-10c-5.514,0 -10,4.486 -10,10c0,5.514 4.486,10 10,10c2.577,0 4.922,-0.988 6.697,-2.596l6.449,6.449l0.707,-0.707zM10,19c-4.962,0 -9,-4.038 -9,-9c0,-4.962 4.038,-9 9,-9c4.962,0 9,4.038 9,9c0,4.962 -4.037,9 -9,9z"></path></g></g></svg>