<svg version="1.1" xmlns="http://www.w3.org/2000/svg" xmlns:xlink="http://www.w3.org/1999/xlink" width="512" height="512" viewBox="0,0,256,256"><g fill="#ffffff" fill-rule="nonzero" stroke="none" stroke-width="1" stroke-linecap="butt" stroke-linejoin="miter" stroke-miterlimit="10" stroke-dasharray="" stroke-dashoffset="0" font-family="none" font-weight="none" font-size="none" text-anchor="none" style="mix-blend-mode: normal"><g transform="scale(10.66667,10.66667)"><path d="M12,0c-6.617,0 -12,5.383 -12,12c0,6.617 5.383,12 12,12c6.617,0 12,-5.383 12,-12c0,-6.617 -5.383,-12 -12,-12zM7,21.797v-3.297c0,-0.827 0.673,-1.5 1.5,-1.5h7c0.827,0 1.5,0.673 1.5,1.5v3.297c-1.501,0.769 -3.201,1.203 -5,1.203c-1.799,0 -3.499,-0.434 -5,-1.203zM18,21.215v-2.715c0,-1.379 -1.122,-2.5 -2.5,-2.5h-7c-1.378,0 -2.5,1.121 -2.5,2.5v2.715c-3.008,-1.965 -5,-5.362 -5,-9.215c0,-6.065 4.935,-11 11,-11c6.065,0 11,4.935 11,11c0,3.853 -1.992,7.25 -5,9.215zM12,6c-2.206,0 -4,1.794 -4,4c0,2.206 1.794,4 4,4c2.206,0 4,-1.794 4,-4c0,-2.206 -1.794,-4 -4,-4zM12,13c-1.654,0 -3,-1.346 -3,-3c0,-1.654 1.346,-3 3,-3c1.654,0 3,1.346 3,3c0,1.654 -1.346,3 -3,3z"></path></g></g></svg>